<svg xmlns="http://www.w3.org/2000/svg" viewBox="0 0 57.26 69.38">
  <defs>
    <linearGradient id="critter2Shade" x1="0%" y1="0%" x2="0%" y2="100%">
      <stop offset="0%" style="stop-color:#fffdd1;stop-opacity:1" />
      <stop offset="100%" style="stop-color:#fffdd1;stop-opacity:1" />
    </linearGradient>
    <linearGradient id="critter2Body" x1="0%" y1="0%" x2="0%" y2="100%">
      <stop offset="0%" style="stop-color:#fffdd1;stop-opacity:1" />
      <stop offset="100%" style="stop-color:#fffdd1;stop-opacity:1" />
    </linearGradient>
  </defs>
  <g transform="matrix(-1 0 0 1 57.26 0)">
  <path fill="url(#critter2Body)" d="M34.25,53.82c-1.45,1.4-1.48,3.07-1.77,4.61a27.06,27.06,0,0,1-3.17,8c-1.32,2.39-3.36,3.17-6,3a5.28,5.28,0,0,1-4.94-3.86,10.92,10.92,0,0,1-.56-4.2c.26-3.17.84-6.31,1.19-9.48s.72-6.33-1.26-9.25a11,11,0,0,0-3.23-3.43c-2.71-1.67-5.37-3.42-8-5.14a33,33,0,0,1-2.81-1.83,9.41,9.41,0,0,1-3.55-6C-.17,24.43.05,23,1.69,22s3.3-1.3,4.9-.1a26.71,26.71,0,0,1,3.54,3.18,12.26,12.26,0,0,0,8.35,4c5.58.51,10.83,0,15.54-3.29a15.3,15.3,0,0,0,4.87-5.18,4.87,4.87,0,0,0,.44-4.54c-.56-1.32-1.06-2.67-1.49-4a4.37,4.37,0,0,1,1.65-5,4.91,4.91,0,0,1,6,1.42,8.45,8.45,0,0,1,1.78,5.34A25.92,25.92,0,0,1,46,22.26c-.44,1.19-.72,2.45-1.19,3.63a15.54,15.54,0,0,0,.11,11.21A37.64,37.64,0,0,0,50.2,47.24a16.13,16.13,0,0,1,3.34,8.82c0,.47.08.95.06,1.43-.15,2.65-1.47,4.19-4.1,4.43-3.09.29-6.08-.13-8.56-2.22-1.46-1.23-2.8-2.61-4.22-3.89C35.92,55.1,35.06,54.47,34.25,53.82Z"/>
  <path fill="url(#critter2Shade)" d="M28.71,3.78c6.07,7.51,6.29,7.9,8.34,14.34-1.42,4-4.77,6.18-8.55,7.57a20.42,20.42,0,0,1-12.21.37c-3.12-.8-4.24-2.35-4.1-5.49.18-4.1.46-8.19.69-12.24C24.45,7.42,24.65,5.56,28.71,3.78Z"/>
  <path fill="url(#critter2Shade)" d="M12.63,4.47C16,1.56,19-.25,23,0a4.89,4.89,0,0,1,1.82.42,1.62,1.62,0,0,1,.85,1,1.44,1.44,0,0,1-.56,1.2C21.41,4.65,17.65,6.16,12.63,4.47Z"/>
  <path fill="url(#critter2Body)" d="M8.47,38.65c.68,2.58,1.33,5,1.91,7.4,0,.19-.25.59-.48.7a.91.91,0,0,1-.83-.1,8.82,8.82,0,0,1-1.86-7.07C7.27,39.27,7.9,39.05,8.47,38.65Z"/>
  <path fill="url(#critter2Body)" d="M2.91,38.86c.33,2.63.68,5.26,1,7.9,0,.18-.36.53-.6.58a1,1,0,0,1-.83-.29A7.7,7.7,0,0,1,2,39C2,38.84,2.51,38.9,2.91,38.86Z"/>
  <path fill="url(#critter2Shade)" d="M51.1,20.33a7,7,0,0,1,2.2.24c2.39,1.11,3.21,3.36,4,5.56-.53.77-1.3,1-1.63.39a25.55,25.55,0,0,0-4.48-5.39C51.07,21,51.13,20.82,51.1,20.33Z"/>
  <path fill="url(#critter2Body)" d="M48.3,25.84c.52-.26,1.06-.71,1.25-.6C51.7,26.55,53,28.35,52.69,31c0,.12-.19.23-.29.35-.29-.07-.74,0-.86-.21C50.46,29.47,49.43,27.72,48.3,25.84Z"/>
  </g>
</svg>
