<svg xmlns="http://www.w3.org/2000/svg" viewBox="0 0 65.21 71.68">
  <defs>
    <linearGradient id="critter5Shade" x1="0%" y1="0%" x2="0%" y2="100%">
      <stop offset="0%" style="stop-color:#fffdd1;stop-opacity:1" />
      <stop offset="100%" style="stop-color:#fffdd1;stop-opacity:1" />
    </linearGradient>
    <linearGradient id="critter5Body" x1="0%" y1="0%" x2="0%" y2="100%">
      <stop offset="0%" style="stop-color:#fffdd1;stop-opacity:1" />
      <stop offset="100%" style="stop-color:#fffdd1;stop-opacity:1" />
    </linearGradient>
  </defs>
  <g transform="matrix(-1 0 0 1 65.21 0)">
  <g id="Layer_2" data-name="Layer 2">
    <g id="Layer_1_copy" data-name="Layer 1 copy">
      <!-- Body (bottom part) -->
      <path fill="url(#critter5Body)" d="M30,58c-1.54,2.83-2.71,5.27-4.16,7.53a18.42,18.42,0,0,1-3.72,4.33c-3.48,2.8-7.84,1.05-8.73-3.38a18.15,18.15,0,0,1,2.45-12.88c.47-.83,1-1.63,1.53-2.43a5.85,5.85,0,0,0,.28-6.91c-1,.35-1.94.8-3,1.07a39.08,39.08,0,0,1-6.5,1.47,5.93,5.93,0,0,1-6.49-5.58,4.41,4.41,0,0,1,1.52-3.84c2.05-1.88,4.61-2.81,7.05-4a13.35,13.35,0,0,1,7.82-1.07c6.82.85,13.7,1.1,20.35-1.44a64,64,0,0,1,6.22-1.69c1.59.34,2.8,1.7,4.08,2.84a6.42,6.42,0,0,1,1.58,7.86A29.83,29.83,0,0,1,47,45.11c-2.78,3.59-3.29,3.15-7.38,1.7-2.52-.9-3.27-3.62-1.75-5.94A26.41,26.41,0,0,1,41,37.31c1-1,2-2,2.86-2.84-.41-1.25-1.1-1.83-1.89-1.28a21.24,21.24,0,0,0-6.44,6.33c-2.34,3.93-1,8,3.24,9.82a3,3,0,0,0,.89.35c3.27.18,4.65,2.36,5.49,5.13.78,2.6,1.72,5.16,2.33,7.79a9.35,9.35,0,0,1-.37,6.12,4.52,4.52,0,0,1-5.44,2.8c-2.88-.68-5.39-1.93-6.86-4.74S31.8,61.2,30,58Z"/>
      <!-- Shade (top part) -->
      <path fill="url(#critter5Shade)" d="M18.33,8.17c7.33,3.32,13.81.8,20.48-1.57.6,1,1.22,1.91,1.69,2.88q2.82,5.81,5.55,11.66c1.27,2.72.78,4.32-2,5.28-6.5,2.21-13,4.34-20.09,3.67-3.34-.31-6.69-.29-9.88-1.55-2.41-.95-3-1.93-2.45-4.4A7,7,0,0,1,12,22.77C14.05,18.08,16.08,13.39,18.33,8.17Z"/>
      <path fill="url(#critter5Shade)" d="M18.81,4.58c.85-.91,1.35-1.92,2.11-2.17C25,1.1,29.05-.33,33.45.07a5.13,5.13,0,0,1,3.48,1.27c.7.71.89,2,.18,2.55-2.9,2.2-6.39,2.72-9.84,3.15C24.44,7.39,21.59,7.22,18.81,4.58Z"/>
      <path fill="url(#critter5Body)" d="M2.32,68.23c-.76-.4-1.39-.51-1.48-.8A15.1,15.1,0,0,1,1,57.18c.19-.51,1.15-.73,2.44-1.48a41.25,41.25,0,0,0-1,4.25c-.15,1.42-.07,2.87-.08,4.31C2.32,65.47,2.32,66.69,2.32,68.23Z"/>
      <path fill="url(#critter5Body)" d="M7.67,56.37c-.14,4-.28,7.84-.41,11.65-.53,0-1,.1-1.08,0a13.5,13.5,0,0,1,.17-11.26C6.46,56.5,7.13,56.51,7.67,56.37Z"/>
      <path fill="url(#critter5Body)" d="M60.84,38.12c2.75-4.51,2.75-4.51.46-11.44a.91.91,0,0,1,1.55-.08,9.48,9.48,0,0,1,2.25,8,4.77,4.77,0,0,1-3,4C61.79,38.66,61.28,38.28,60.84,38.12Z"/>
      <path fill="url(#critter5Body)" d="M56.49,39.52a13.23,13.23,0,0,0-1.56-10.07.93.93,0,0,1,1.59-.94,9.71,9.71,0,0,1,1.6,9.77C57.93,38.82,57.05,39.11,56.49,39.52Z"/>
    </g>
  </g>
  </g>
</svg>