<svg xmlns="http://www.w3.org/2000/svg" viewBox="0 0 61.45 68.18">
  <defs>
    <linearGradient id="critter3Shade" x1="0%" y1="0%" x2="0%" y2="100%">
      <stop offset="0%" style="stop-color:#fffdd1;stop-opacity:1" />
      <stop offset="100%" style="stop-color:#fffdd1;stop-opacity:1" />
    </linearGradient>
    <linearGradient id="critter3Body" x1="0%" y1="0%" x2="0%" y2="100%">
      <stop offset="0%" style="stop-color:#fffdd1;stop-opacity:1" />
      <stop offset="100%" style="stop-color:#fffdd1;stop-opacity:1" />
    </linearGradient>
  </defs>
  <g transform="matrix(-1 0 0 1 61.45 0)">
  <g id="Layer_2" data-name="Layer 2">
    <g id="Layer_1_copy" data-name="Layer 1 copy">
      <!-- Body (bottom part) -->
      <path fill="url(#critter3Body)" d="M45.65,37.29a26.73,26.73,0,0,1,.3,3.18,24.46,24.46,0,0,0,2.89,12.39,23.94,23.94,0,0,1,1.89,7.38c.79,5.3-4,7.55-7.48,6.68a7.33,7.33,0,0,1-5-3.38c-1.44-2.48-3-4.92-4.44-7.37-.3-.5-.64-1-.87-1.32-1.2,0-1.21.81-1.4,1.35-.64,1.8-1.22,3.62-1.8,5.44-1.7,5.44-4.49,7.2-10,6.33-3.07-.49-5-2.35-4.91-5.5a21.5,21.5,0,0,1,1.19-6c.52-1.66,1.58-3.14,2.19-4.77,1.11-2.95,2.77-4.65,6.27-4.76,3-.08,4.52-2.12,5-5A5.92,5.92,0,0,0,26,35.64a14.36,14.36,0,0,0-4.14-1A1.33,1.33,0,0,0,20.29,36c0,.42.72,1,1.23,1.17.73.27,1.63.09,2.34.39a6.39,6.39,0,0,1,2.29,1.61,3.16,3.16,0,0,1-1.57,5,5.34,5.34,0,0,1-1.41.28q-4.05,0-8.12,0a5.27,5.27,0,0,1-1.4-.28,3.59,3.59,0,0,1-2.88-4.29c.52-3.47,2.47-6.21,4.85-8.6a3.25,3.25,0,0,1,2.66-.54c8.89,2.18,17-.37,25-3.88a19.39,19.39,0,0,0,3.94-2.64c1.32-1,2.14-2.35,1.54-4.18-.48-1.49.39-2.5,1.52-3.18a10.08,10.08,0,0,1,3.09-1.22,4.2,4.2,0,0,1,5.09,3.2c.48,1.9.59,3.76-.81,5.44a22.22,22.22,0,0,0-1.45,2.47c-2.23,3.5-4.31,7.12-8.42,8.85A11.77,11.77,0,0,0,45.65,37.29Z"/>
      <!-- Shade (top part) -->
      <path fill="url(#critter3Shade)" d="M20.54,4.93c3.11.28,5.94.85,8.72.69s5.61-1,8.82-1.67a17.72,17.72,0,0,1,1.8,2.89q2.57,6.44,4.92,12.94c.82,2.26.42,3.15-1.67,4.29a41.61,41.61,0,0,1-18.79,4.84,26.83,26.83,0,0,1-7-1.23C16,27.35,14.5,27,13.48,25.29,15,18.42,18.39,12,20.54,4.93Z"/>
      <path fill="url(#critter3Shade)" d="M23.94,1.47A26.62,26.62,0,0,1,32.67,0a25.41,25.41,0,0,1,3.72.57c-.92.86-1.27,1.39-1.75,1.59-2.88,1.21-5.89,1-8.9.73C25,2.82,24.13,2.74,23.94,1.47Z"/>
      <path fill="url(#critter3Body)" d="M6.73,42.71c-2.54-1.73-2-3.54-1.93-5.14,0-1.26.25-2.58,2.32-2.76C7,37.3,6.63,39.66,6.73,42.71Z"/>
      <path fill="url(#critter3Body)" d="M2.25,41.87c-.42,0-.65.11-.72,0a5.56,5.56,0,0,1-.72-6.7A1,1,0,0,1,1.63,35c.24,0,.59.37.59.58C2.27,37.53,2.25,39.54,2.25,41.87Z"/>
      <path fill="url(#critter3Body)" d="M57.05,31.41c3.44,1.39,4.61,3.11,4.38,5.57,0,.2-.41.49-.64.52a1,1,0,0,1-.83-.33C59.08,35.52,58.27,33.84,57.05,31.41Z"/>
      <path fill="url(#critter3Body)" d="M55.15,34.86c2.56,3.34,2.56,3.34,2,6a7.82,7.82,0,0,1-3-5.17C54.16,35.49,54.81,35.15,55.15,34.86Z"/>
    </g>
  </g>
  </g>
</svg>