<svg xmlns="http://www.w3.org/2000/svg" viewBox="0 0 68.85 66.97">
  <defs>
    <linearGradient id="critter4Shade" x1="0%" y1="0%" x2="0%" y2="100%">
      <stop offset="0%" style="stop-color:#fffdd1;stop-opacity:1" />
      <stop offset="100%" style="stop-color:#fffdd1;stop-opacity:1" />
    </linearGradient>
    <linearGradient id="critter4Body" x1="0%" y1="0%" x2="0%" y2="100%">
      <stop offset="0%" style="stop-color:#fffdd1;stop-opacity:1" />
      <stop offset="100%" style="stop-color:#fffdd1;stop-opacity:1" />
    </linearGradient>
  </defs>
  <path fill="url(#critter4Body)" d="M26,46c-3,0-5.56.06-8.1,0a6.54,6.54,0,0,1-5.41-2.58c-.94-1.27-1.31-2.64-.42-4a14.74,14.74,0,0,1,2.77-3.22c3.23-2.66,7-4.36,10.84-6a5.71,5.71,0,0,1,3.72-.2,54.57,54.57,0,0,0,13.32,1,18.49,18.49,0,0,0,11.46-4.17,4.1,4.1,0,0,0,1.71-4.58c-.55-2.14-1.15-4.28-1.78-6.63a3.41,3.41,0,0,1,4.09-1.11,4.49,4.49,0,0,1,3.09,3.38,13.27,13.27,0,0,1-.33,8,46.2,46.2,0,0,1-4,8.09c-1.18,1.81-1.64,3.33-.7,5.3A11.75,11.75,0,0,1,57,42c.94,4.48-.75,6.72-5.8,7.42-.52-1.86-1-3.78-1.54-5.55-1.43-.49-2.13-.11-2.17,1.15,0,1.08.37,2.29,0,3.21-.62,1.54-2.18,2.28-3.7,2.82-2.87,1-5.76,1.87-8.74.31a.9.9,0,0,0-.84.28c-.18.37-.34,1-.16,1.25.62.92,1.4,1.72,2.09,2.59a16.84,16.84,0,0,1,3.48,6.74c.32,1.32.43,2.46-.67,3.51a3.49,3.49,0,0,1-4.37.78,39.85,39.85,0,0,1-7-4.94c-3.38-3.19-4.61-7.18-3-11.76Z"/>
  <path fill="url(#critter4Shade)" d="M30.07,7.87c10.06,1.19,6.32,1.94,19-.66,1.33,2.52.88,5.53,1.86,8.18s2.52,5.17,2.44,8.33A11.71,11.71,0,0,1,45.25,28c-6.35.47-12.74.68-18.84-1.78a20.16,20.16,0,0,1-3-1.48,2.53,2.53,0,0,1-1.06-3.3,3.11,3.11,0,0,1,.46-.84C26,17,27.67,12.46,29.71,8.17,29.77,8,29.94,8,30.07,7.87Z"/>
  <path fill="url(#critter4Body)" d="M43.66,63.86l-3.82-8.31c1.31-.48,2.55-1,3.82-1.39,1.49-.48,3-.88,4.51-1.33a2.44,2.44,0,0,1,3.29,1.72c1.61,4.87-.54,8.5-5.6,9.42A11.31,11.31,0,0,1,43.66,63.86Z"/>
  <path fill="url(#critter4Shade)" d="M41.43.42a28.44,28.44,0,0,1,3.33,0A6,6,0,0,1,47,1.2,2.28,2.28,0,0,1,47,5.14a7.1,7.1,0,0,1-2.65,1c-3,.34-6,.55-9,.78A5.2,5.2,0,0,1,34,6.69a3.23,3.23,0,0,1-2.74-2.31,2.88,2.88,0,0,1,2.26-2.73C36.07,1,38.73.54,41.36,0Z"/>
  <path fill="url(#critter4Body)" d="M6.8,46.42c-.85-.88-1.56-1.26-1.58-1.69A15.3,15.3,0,0,1,9.14,33c.59-.64,1.37-.74,2.07.48C8,36.8,7.33,41.29,6.8,46.42Z"/>
  <path fill="url(#critter4Body)" d="M5.08,33.21a39.06,39.06,0,0,0-2.63,6,40.09,40.09,0,0,0-.64,6.7C1.13,45.51.44,45.34.38,45a13.72,13.72,0,0,1,2.47-11.7C3.35,32.69,4,32.68,5.08,33.21Z"/>
  <path fill="url(#critter4Body)" d="M65.56,49.77c.34-1.58.78-3.18,1-4.81s-1.06-3-.19-4.48a1,1,0,0,1,1.5.7c.85,2.54,1.7,5.14,0,7.67C67.44,49.57,66.86,50.5,65.56,49.77Z"/>
  <path fill="url(#critter4Body)" d="M61.73,40.07c.37,0,.87,0,.93.16,1.3,3,1.14,5.89-1.06,8.45a1.32,1.32,0,0,1-1.22.31A1.27,1.27,0,0,1,60,47.8c1.37-2,1.41-4.18,1.29-6.44A3.62,3.62,0,0,1,61.73,40.07Z"/>
</svg>
