<svg xmlns="http://www.w3.org/2000/svg" viewBox="0 0 51.01 64.42">
  <defs>
    <linearGradient id="critter8Shade" x1="0%" y1="0%" x2="0%" y2="100%">
      <stop offset="0%" style="stop-color:#fffdd1;stop-opacity:1" />
      <stop offset="100%" style="stop-color:#fffdd1;stop-opacity:1" />
    </linearGradient>
    <linearGradient id="critter8Body" x1="0%" y1="0%" x2="0%" y2="100%">
      <stop offset="0%" style="stop-color:#fffdd1;stop-opacity:1" />
      <stop offset="100%" style="stop-color:#fffdd1;stop-opacity:1" />
    </linearGradient>
  </defs>
  <g transform="matrix(-1 0 0 1 51.01 0)">
  <path fill="url(#critter8Body)" d="M33.92,36.94c2.51,2.88,1.55,6.33.39,10.48,1.71-1.17,2.7-1.91,3.74-2.54,2.26-1.38,4.51-.37,5.06,2.23a5.89,5.89,0,0,1-2.66,6.65,59,59,0,0,1-6.25,3.51,6.23,6.23,0,0,1-8.55-2.87,20.46,20.46,0,0,1-1.1-3.15,27.32,27.32,0,0,0,2.7-2.88c1.45-2,2.1-4.32,1-6.77-.39-.89-1-1.7-2.18-1.14-.15,1.85.15,3.91-.58,5.49s-2.5,2.82-3.8,4.21a4.25,4.25,0,0,0-.47.84c.26,2.19.58,4.38.77,6.59A6.58,6.58,0,0,1,20.47,62c-1.64,2.31-3.83,2.73-6.35,2.23a3.11,3.11,0,0,1-2.74-2.92C10.91,55.4,10.59,49.5,13,43.85a11.93,11.93,0,0,0,.85-3.64c0-.39-.7-1-1.21-1.22-.21-.11-.9.34-1.09.69-.46.84-.7,1.79-1.13,2.64C9.68,43.9,8.81,45.42,8,47a3.22,3.22,0,0,1-3.5,1.93A3.77,3.77,0,0,1,1,46.14a11.42,11.42,0,0,1-.3-3.78C1,38,3.27,34.58,6.73,31.55c7.59,1.49,14.73-.66,21.44-4.23,3.31-1.76,6.86-3.59,8.48-7.71-.89-3.6-3.5-6.6-4.73-10,.32-1.76,1.5-2.18,2.82-2.31A4.63,4.63,0,0,1,39,9.11a3.73,3.73,0,0,1,.89,1.67c.7,4.92,1.41,9.86-1.25,14.48A35.72,35.72,0,0,0,33.92,36.94Z"/>
  <path fill="url(#critter8Shade)" d="M5.74,6.65a20.8,20.8,0,0,0,19.79-2,18.48,18.48,0,0,1,1.64,2.2c2,3.62,4,7.26,5.94,10.93.77,1.47.62,2.45-.64,3.39a40.39,40.39,0,0,1-6.36,4.23,42.76,42.76,0,0,1-11.3,3.74,20,20,0,0,1-8.49-.6c-2.73-.7-4.56-2.84-6-5.18a2.53,2.53,0,0,1-.23-1.85C1.48,16.49,2.7,11.36,5.74,6.65Z"/>
  <path fill="url(#critter8Shade)" d="M24.08.69c.08,1.83-1.22,2.35-2.22,3-2.48,1.67-5.32,1.94-8.21,1.93-2,0-4.08.08-5.87-1.81.5-.42.88-1,1.38-1.15A52.73,52.73,0,0,1,16.35.28,29.38,29.38,0,0,1,22.51.05,4.49,4.49,0,0,1,24.08.69Z"/>
  <path fill="url(#critter8Body)" d="M43.32,28.42c0-1.42.79-1.75,1.59-1.45a33.83,33.83,0,0,1,4.7,2.16A3.73,3.73,0,0,1,51,30.83c.23.53-1.1.68-2.32.12C46.83,30.1,45,29.22,43.32,28.42Z"/>
  <path fill="url(#critter8Body)" d="M45.84,35.87c-2.37,1-3.38-1.17-4.86-2a1.16,1.16,0,0,1-.24-2C43.94,33.29,43.94,33.29,45.84,35.87Z"/>
  </g>
</svg>
