<svg xmlns="http://www.w3.org/2000/svg" viewBox="0 0 66.15 70.98">
  <defs>
    <linearGradient id="critter1Shade" x1="0%" y1="0%" x2="0%" y2="100%">
      <stop offset="0%" style="stop-color:#fffdd1;stop-opacity:1" />
      <stop offset="100%" style="stop-color:#fffdd1;stop-opacity:1" />
    </linearGradient>
    <linearGradient id="critter1Body" x1="0%" y1="0%" x2="0%" y2="100%">
      <stop offset="0%" style="stop-color:#fffdd1;stop-opacity:1" />
      <stop offset="100%" style="stop-color:#fffdd1;stop-opacity:1" />
    </linearGradient>
  </defs>
  <g id="Layer_2" data-name="Layer 2">
    <g id="Layer_1_copy" data-name="Layer 1 copy">
      <!-- Body (bottom part) -->
      <path fill="url(#critter1Body)" d="M35.78,56c-.72,1.69-1.2,2.65-1.55,3.66a20.7,20.7,0,0,1-6.3,8.88c-5.35,4.65-8.72,2.12-11.29-2.84a9.05,9.05,0,0,1-.7-3.26a4.16,4.16,0,0,1,2-4.1c.8-.51,1.66-.94,2.51-1.38a5.47,5.47,0,0,0,3-5,22.61,22.61,0,0,1,.84-4.65,11.38,11.38,0,0,0,0-5.68,3.76,3.76,0,0,0-3.91-2.86c-3.31.05-5.14,1.26-5.69,4a2.24,2.24,0,0,0,.68,1.56c.14.15.9-.08,1.24-.33s.5-.84.86-1.12a7,7,0,0,1,2-1.18A1.8,1.8,0,0,1,22,43.06a9.37,9.37,0,0,1-2.31,7.54c-1.55,1.9-6,1.45-7.78-.7A9.66,9.66,0,0,1,10,39.61a18,18,0,0,1,9.24-9.91,3.93,3.93,0,0,1,3.22-.14c1.8.65,3.62,1.25,5.42,1.89,8.15,2.92,15.68,1.2,22.85-3.07,1.1-.65,2.09-1.49,3.2-2.1a4.85,4.85,0,0,1,7.22,3A4.23,4.23,0,0,1,61,32a26.22,26.22,0,0,1-3,4.84,3.05,3.05,0,0,1-4.87-.43A5.5,5.5,0,0,1,52,32.86a21.55,21.55,0,0,0-.23-2.78c-.95.58-1.86.81-2.07,1.33a5.09,5.09,0,0,0,.41,5c1.13,1.66,2.42,3.21,3.7,4.9a30.45,30.45,0,0,1-3.71,2.83c-2.1,1.17-2.28,2.92-1.84,4.91a14.7,14.7,0,0,0,1.09,2.64c.38.88.78,1.75,1.19,2.61,1.58,3.27,1.5,6.16-1.89,8.3-.13.09-.29.22-.31.35-.06.43-.24,1,0,1.27a1.62,1.62,0,0,0,1.27.42,4.41,4.41,0,0,0,3.32-2.47c.63-1,1.3-1.86,2.66-1.41A3.35,3.35,0,0,1,58,64a5.38,5.38,0,0,1-1.93,4.69,8.83,8.83,0,0,1-7.55,2.15c-.78-.14-1.53-.46-2.31-.62-2.63-.54-4.35-2-4.5-4.79-.11-2.26-1.51-3.79-2.79-5.42C38.05,58.87,37.17,57.75,35.78,56Z"/>
      <!-- Shade (top part) -->
      <path fill="url(#critter1Shade)" d="M45.65,6.38c3,4.53,7.24,8.2,10,13.27a10,10,0,0,1-3.38,4.49A25.54,25.54,0,0,1,40.5,29.08a37,37,0,0,1-15.57-1.4,12.92,12.92,0,0,1-5.83-4A2.5,2.5,0,0,1,18.61,21a13.56,13.56,0,0,1,.8-1.73c2.07-3.92,4.14-7.84,6.29-11.89,1.35-.78,2.67.21,3.95.61,5.17,1.61,10.05.87,14.83-1.38A5.62,5.62,0,0,1,45.65,6.38Z"/>
      <path fill="url(#critter1Shade)" d="M29.4,3.75A6.92,6.92,0,0,1,34.28.32c2.21-.36,4.45-.6,6.6.34a4,4,0,0,1,1.08.9,1.65,1.65,0,0,1-.34,2.78C37.51,6.17,33.43,7.11,29.4,3.75Z"/>
      <path fill="url(#critter1Body)" d="M65.23,47c-1.46-2.2-2.81-4.15-4-6.17-.24-.4,0-1.08,0-2.13a9.44,9.44,0,0,1,4.17,4.37,11.85,11.85,0,0,1,.82,3.16C66.17,46.4,65.72,46.63,65.23,47Z"/>
      <path fill="url(#critter1Body)" d="M5.64,32.59c-1,.88-1.84.39-2.54-.31-1.79-1.76-3.49-3.58-3-6.66.63.16,1.28.16,1.36.37A14.4,14.4,0,0,0,5.12,31.4C5.42,31.68,5.48,32.2,5.64,32.59Z"/>
      <path fill="url(#critter1Body)" d="M5.2,22.12l4.94,7.31c-.69.24-1.25.61-1.45.47a11.67,11.67,0,0,1-4.36-6C4.23,23.62,4.69,23.15,5.2,22.12Z"/>
      <path fill="url(#critter1Body)" d="M61.11,50c-.41-2.62-3.53-3.41-3-6.31,2,.3,2.86,1.68,3.68,3a6.67,6.67,0,0,1,.65,2.21C62.45,49,62,49.22,61.11,50Z"/>
    </g>
  </g>
</svg>