<svg xmlns="http://www.w3.org/2000/svg" viewBox="0 0 62.33 77.31">
  <defs>
    <linearGradient id="critter14Shade" x1="0%" y1="0%" x2="0%" y2="100%">
      <stop offset="0%" style="stop-color:#fffdd1;stop-opacity:1" />
      <stop offset="100%" style="stop-color:#fffdd1;stop-opacity:1" />
    </linearGradient>
    <linearGradient id="critter14Body" x1="0%" y1="0%" x2="0%" y2="100%">
      <stop offset="0%" style="stop-color:#fffdd1;stop-opacity:1" />
      <stop offset="100%" style="stop-color:#fffdd1;stop-opacity:1" />
    </linearGradient>
  </defs>
  <g transform="matrix(-1 0 0 1 62.33 0)">
  <path fill="url(#critter14Shade)" d="M11.67,35C13.15,25.61,14.54,16.81,16,7.77c6.09-.48,12-.93,17-4.25,2.35,3,7.6,14.28,11.46,24.56a15.17,15.17,0,0,1-7.07,4.43A59,59,0,0,1,18,35.64C16.16,35.64,14.27,35.29,11.67,35Z"/>
  <path fill="url(#critter14Body)" d="M28.51,54.47a19.48,19.48,0,0,0-1.41,2.46c-1,2.56-2.78,3.55-5.52,3.65-4.88.19-8.55-1-8.48-8.17,0-3.65-.5-7.34.35-11,.25-1.05.67-2.05,1.07-3.26a61.85,61.85,0,0,0,28.33-5.06A12.39,12.39,0,0,1,44,35.76,32.87,32.87,0,0,1,43.4,50a15.83,15.83,0,0,1-1.63,3.94c-3,5-7.64,5.49-11.91,1.48A10.91,10.91,0,0,0,28.51,54.47Z"/>
  <path fill="url(#critter14Body)" d="M31.9,63.4A13.2,13.2,0,0,0,39.8,61c3.34,3.72,3.62,8,3.09,12.33-.45,3.63-4.07,5.11-7.23,3.18a20.74,20.74,0,0,1-2.68-2A2.9,2.9,0,0,1,31.87,73C31.49,69.85,30.22,66.72,31.9,63.4Z"/>
  <path fill="url(#critter14Body)" d="M14.74,63.07H25.49a17.86,17.86,0,0,1,.24,9.55,3.83,3.83,0,0,1-3.46,2.87,9.89,9.89,0,0,1-6.48-1.09c-3.24-1.83-4.13-4.08-2.86-7.59A39.26,39.26,0,0,1,14.74,63.07Z"/>
  <path fill="url(#critter14Shade)" d="M9.25,31.71c-.51-.11-.91-.07-1.08-.25-2-2.21-4.09-4.42-6-6.71a9.58,9.58,0,0,1-2-8,2.68,2.68,0,0,1,2-2.41,8.22,8.22,0,0,1,8.87,4,2.69,2.69,0,0,1,.27,1.38A69.56,69.56,0,0,1,9.25,31.71Z"/>
  <path fill="url(#critter14Shade)" d="M45.63,22.73a74.26,74.26,0,0,1-5-12.06c-.86-3,2.25-7.52,5.26-8A3.2,3.2,0,0,1,49.4,5.23a15.56,15.56,0,0,1,.1,7.52,7.47,7.47,0,0,1-.45,1.36C48,16.87,46.87,19.62,45.63,22.73Z"/>
  <path fill="url(#critter14Shade)" d="M30.82,1c-.49,1.66-2.07,1.79-3.32,2.21-3,1-6,2-9.24,1.23C21.07-.21,25-.92,30.82,1Z"/>
  <path fill="url(#critter14Shade)" d="M62.33,22.24c-.53.22-1,.61-1.29.51a19.5,19.5,0,0,1-7.22-4.41c-.53-.52-.3-1.1.77-2.16,1.34,1,2.68,2.07,4,3.08S61.56,20.47,62.33,22.24Z"/>
  <path fill="url(#critter14Shade)" d="M59.37,27.43c-1,0-1.52.17-1.81,0C55.51,26,53.49,24.49,51.51,23c-.77-.59-.69-1.29,0-1.93C55.92,23,56.84,23.67,59.37,27.43Z"/>
  </g>
</svg>
